<svg width="800px" height="800px" xmlns="http://www.w3.org/2000/svg" viewBox="69.502 56.017 353.735 354.771">
  <path d="M 149.401 233.402 L 109.701 273.102 L 69.901 233.402 L 109.601 193.702 L 149.401 233.402 Z M 245.901 136.902 L 314.001 205.002 L 353.701 165.302 L 245.901 57.402 L 138.001 165.302 L 177.701 205.002 L 245.901 136.902 Z M 382.101 193.702 L 342.401 233.402 L 382.101 273.102 L 421.801 233.402 L 382.101 193.702 Z M 245.901 329.902 L 177.801 261.802 L 138.101 301.502 L 245.901 409.402 L 353.701 301.502 L 314.001 261.802 L 245.901 329.902 Z M 245.901 273.102 L 285.601 233.402 L 245.901 193.702 L 206.101 233.402 L 245.901 273.102 Z" fill="#f0b90b"></path>
</svg>
