<svg width="16" height="16" viewBox="0 0 16 16" fill="none" xmlns="http://www.w3.org/2000/svg">
<g clip-path="url(#clip0_125_189)">
<path d="M4.82373 6.72333L7.93094 3.61624L11.0398 6.72498L12.8478 4.91698L7.93094 0L3.01573 4.91534L4.82373 6.72333Z" fill="#F3BA2F"/>
<path d="M3.54693 7.99974L1.73897 6.19177L-0.0690845 7.99982L1.73888 9.80779L3.54693 7.99974Z" fill="#F3BA2F"/>
<path d="M4.82373 9.27666L7.93094 12.3838L11.0397 9.27515L12.8487 11.0821L12.8478 11.0831L7.93094 16L3.0156 11.0848L3.01308 11.0823L4.82373 9.27666Z" fill="#F3BA2F"/>
<path d="M14.1231 9.8086L15.9311 8.00055L14.1232 6.19259L12.3151 8.00064L14.1231 9.8086Z" fill="#F3BA2F"/>
<path d="M9.76484 7.99903L7.93094 6.16437L6.5751 7.52021L6.41929 7.67602L6.09793 7.99738L6.0954 7.99991L6.09793 8.00257L7.93094 9.83558L9.7656 8.00092L9.76648 7.99991L9.76484 7.99903Z" fill="#F3BA2F"/>
</g>
<defs>
<clipPath id="clip0_125_189">
<rect width="16" height="16" fill="white"/>
</clipPath>
</defs>
</svg>
