<svg width="14" height="5" viewBox="0 0 14 5" fill="none" xmlns="http://www.w3.org/2000/svg">
<g clip-path="url(#clip0_185_749)">
<path d="M9.97827 3.72899V0.441162H10.7014V3.72899H9.97827Z" fill="#F7A600"/>
<path d="M1.55031 4.70567H0V1.41785H1.48797C2.21113 1.41785 2.6325 1.77802 2.6325 2.34142C2.6325 2.70611 2.36188 2.94179 2.17457 3.02026C2.39815 3.11257 2.68435 3.32032 2.68435 3.75921C2.68435 4.37317 2.21113 4.70567 1.55031 4.70567ZM1.43073 1.99055H0.723156V2.74786H1.43073C1.73763 2.74786 1.90934 2.59545 1.90934 2.36908C1.90934 2.14296 1.73763 1.99055 1.43073 1.99055ZM1.47748 3.32509H0.723156V4.13321H1.47748C1.80534 4.13321 1.96119 3.94861 1.96119 3.72677C1.96119 3.50518 1.80505 3.32509 1.47748 3.32509Z" fill="#D0E0E3"/>
<path d="M4.89 3.35729V4.70567H4.17195V3.35729L3.05859 1.41785H3.84409L4.53608 2.74308L5.21759 1.41785H6.00308L4.89 3.35729Z" fill="#D0E0E3"/>
<path d="M8.05324 4.70567H6.50293V1.41785H7.9909C8.71406 1.41785 9.13543 1.77802 9.13543 2.34142C9.13543 2.70611 8.86481 2.94179 8.6775 3.02026C8.90108 3.11257 9.18729 3.32032 9.18729 3.75921C9.18729 4.37317 8.71406 4.70567 8.05324 4.70567ZM7.93367 1.99055H7.22609V2.74786H7.93367C8.24056 2.74786 8.41227 2.59545 8.41227 2.36908C8.41227 2.14296 8.24056 1.99055 7.93367 1.99055ZM7.98041 3.32509H7.22609V4.13321H7.98041C8.30827 4.13321 8.46412 3.94861 8.46412 3.72677C8.46412 3.50518 8.30827 3.32509 7.98041 3.32509Z" fill="#D0E0E3"/>
<path d="M13.0322 1.99055V4.70592H12.309V1.99055H11.3413V1.41785H13.9999V1.99055H13.0322Z" fill="#D0E0E3"/>
</g>
<defs>
<clipPath id="clip0_185_749">
<rect width="14" height="5" fill="white"/>
</clipPath>
</defs>
</svg>
