<svg width="20" height="20" viewBox="0 0 20 20" fill="none" xmlns="http://www.w3.org/2000/svg">
<path d="M13.3333 6.66671V5.00004C13.3333 4.55801 13.1577 4.13409 12.8451 3.82153C12.5325 3.50897 12.1086 3.33337 11.6666 3.33337H4.99992C4.55789 3.33337 4.13397 3.50897 3.82141 3.82153C3.50885 4.13409 3.33325 4.55801 3.33325 5.00004V11.6667C3.33325 12.1087 3.50885 12.5327 3.82141 12.8452C4.13397 13.1578 4.55789 13.3334 4.99992 13.3334H6.66659M8.33325 6.66671H14.9999C15.9204 6.66671 16.6666 7.4129 16.6666 8.33337V15C16.6666 15.9205 15.9204 16.6667 14.9999 16.6667H8.33325C7.41278 16.6667 6.66659 15.9205 6.66659 15V8.33337C6.66659 7.4129 7.41278 6.66671 8.33325 6.66671Z" stroke="#535363" stroke-linecap="round" stroke-linejoin="round"/>
</svg>
