<svg width="20" height="20" viewBox="0 0 20 20" fill="none" xmlns="http://www.w3.org/2000/svg">
<g clip-path="url(#clip0_2062_837)">
<path d="M9.99894 19.9979C15.5212 19.9979 19.9979 15.5212 19.9979 9.99894C19.9979 4.47668 15.5212 0 9.99894 0C4.47668 0 0 4.47668 0 9.99894C0 15.5212 4.47668 19.9979 9.99894 19.9979Z" fill="#23E77B" fill-opacity="0.1"/>
<mask id="mask0_2062_837" style="mask-type:luminance" maskUnits="userSpaceOnUse" x="5" y="5" width="10" height="10">
<path d="M14.6645 5.99939H5.33264V14.6646H14.6645V5.99939Z" fill="white"/>
</mask>
<g mask="url(#mask0_2062_837)">
<path d="M10.9458 10.6562V10.6549C10.8926 10.6587 10.6181 10.6749 10.0072 10.6749C9.51869 10.6749 9.17619 10.6612 9.05494 10.6549V10.6562C7.1765 10.5726 5.77536 10.2435 5.77536 9.84825C5.77536 9.45425 7.17775 9.12388 9.05494 9.04031V10.3283C9.17737 10.337 9.52981 10.3582 10.0159 10.3582C10.5996 10.3582 10.8914 10.3333 10.9458 10.3283V9.04156C12.8206 9.12638 14.218 9.4555 14.218 9.8495C14.218 10.2435 12.8193 10.5726 10.9458 10.6574V10.6562ZM10.9458 8.90819V7.75613H13.5613V5.99939H6.44069V7.75613H9.05619V8.90819C6.93037 9.00669 5.33264 9.43056 5.33264 9.93925C5.33264 10.4479 6.93162 10.8719 9.05619 10.9716V14.6646H10.9471V10.9716C13.0691 10.8731 14.6644 10.4493 14.6644 9.9405C14.6644 9.43306 13.0691 9.00788 10.9471 8.90944" fill="#27C191"/>
</g>
</g>
<defs>
<clipPath id="clip0_2062_837">
<rect width="20" height="20" fill="white"/>
</clipPath>
</defs>
</svg>
