<svg width="16" height="16" viewBox="0 0 16 16" fill="none" xmlns="http://www.w3.org/2000/svg">
<path fill-rule="evenodd" clip-rule="evenodd" d="M8.00001 0.833344C6.25111 0.833344 4.83334 2.25111 4.83334 4.00001C4.83334 5.74891 6.25111 7.16668 8.00001 7.16668C9.74894 7.16668 11.1667 5.74891 11.1667 4.00001C11.1667 2.25111 9.74894 0.833344 8.00001 0.833344ZM5.83334 4.00001C5.83334 2.80339 6.80341 1.83334 8.00001 1.83334C9.19661 1.83334 10.1667 2.80339 10.1667 4.00001C10.1667 5.19663 9.19661 6.16668 8.00001 6.16668C6.80341 6.16668 5.83334 5.19663 5.83334 4.00001Z" fill="#D0E0E3"/>
<path fill-rule="evenodd" clip-rule="evenodd" d="M8.00001 8.16666C6.64046 8.16666 5.38502 8.48052 4.45211 9.01359C3.53334 9.53859 2.83334 10.3401 2.83334 11.3333C2.83334 12.3266 3.53334 13.1281 4.45211 13.6531C5.38502 14.1861 6.64046 14.5 8.00001 14.5C9.35954 14.5 10.615 14.1861 11.5479 13.6531C12.4667 13.1281 13.1667 12.3266 13.1667 11.3333C13.1667 10.3401 12.4667 9.53859 11.5479 9.01359C10.615 8.48052 9.35954 8.16666 8.00001 8.16666ZM3.83334 11.3333C3.83334 10.8538 4.17802 10.322 4.94825 9.88186C5.70434 9.44979 6.78221 9.16666 8.00001 9.16666C9.21781 9.16666 10.2957 9.44979 11.0517 9.88186C11.822 10.322 12.1667 10.8538 12.1667 11.3333C12.1667 11.8129 11.822 12.3447 11.0517 12.7848C10.2957 13.2169 9.21781 13.5 8.00001 13.5C6.78221 13.5 5.70434 13.2169 4.94825 12.7848C4.17802 12.3447 3.83334 11.8129 3.83334 11.3333Z" fill="#D0E0E3"/>
</svg>
