<svg width="16" height="16" viewBox="0 0 16 16" fill="none" xmlns="http://www.w3.org/2000/svg">
<path fill-rule="evenodd" clip-rule="evenodd" d="M7.99998 0.833344C6.25108 0.833344 4.83331 2.25111 4.83331 4.00001C4.83331 5.74891 6.25108 7.16668 7.99998 7.16668C9.74891 7.16668 11.1666 5.74891 11.1666 4.00001C11.1666 2.25111 9.74891 0.833344 7.99998 0.833344ZM5.83331 4.00001C5.83331 2.80339 6.80338 1.83334 7.99998 1.83334C9.19658 1.83334 10.1666 2.80339 10.1666 4.00001C10.1666 5.19663 9.19658 6.16668 7.99998 6.16668C6.80338 6.16668 5.83331 5.19663 5.83331 4.00001Z" fill="#D0E0E3"/>
<path d="M12 2.16666C11.7239 2.16666 11.5 2.39052 11.5 2.66666C11.5 2.9428 11.7239 3.16666 12 3.16666C12.9177 3.16666 13.5 3.77048 13.5 4.33332C13.5 4.89617 12.9177 5.49999 12 5.49999C11.7239 5.49999 11.5 5.72385 11.5 5.99999C11.5 6.27613 11.7239 6.49999 12 6.49999C13.2915 6.49999 14.5 5.61142 14.5 4.33332C14.5 3.05522 13.2915 2.16666 12 2.16666Z" fill="#D0E0E3"/>
<path d="M4.5 2.66666C4.5 2.39052 4.27614 2.16666 4 2.16666C2.70852 2.16666 1.5 3.05522 1.5 4.33332C1.5 5.61142 2.70852 6.49999 4 6.49999C4.27614 6.49999 4.5 6.27613 4.5 5.99999C4.5 5.72385 4.27614 5.49999 4 5.49999C3.08234 5.49999 2.5 4.89617 2.5 4.33332C2.5 3.77048 3.08234 3.16666 4 3.16666C4.27614 3.16666 4.5 2.9428 4.5 2.66666Z" fill="#D0E0E3"/>
<path fill-rule="evenodd" clip-rule="evenodd" d="M8 8.16666C6.81047 8.16666 5.71097 8.48719 4.89422 9.03166C4.08097 9.57386 3.5 10.3777 3.5 11.3333C3.5 12.2889 4.08097 13.0928 4.89422 13.635C5.71097 14.1795 6.81047 14.5 8 14.5C9.18953 14.5 10.289 14.1795 11.1058 13.635C11.919 13.0928 12.5 12.2889 12.5 11.3333C12.5 10.3777 11.919 9.57386 11.1058 9.03166C10.289 8.48719 9.18953 8.16666 8 8.16666ZM4.5 11.3333C4.5 10.8161 4.81446 10.2867 5.44892 9.86372C6.07989 9.44306 6.9804 9.16666 8 9.16666C9.0196 9.16666 9.92013 9.44306 10.5511 9.86372C11.1855 10.2867 11.5 10.8161 11.5 11.3333C11.5 11.8505 11.1855 12.3799 10.5511 12.8029C9.92013 13.2236 9.0196 13.5 8 13.5C6.9804 13.5 6.07989 13.2236 5.44892 12.8029C4.81446 12.3799 4.5 11.8505 4.5 11.3333Z" fill="#D0E0E3"/>
<path d="M12.845 9.2262C12.9041 8.95646 13.1708 8.7858 13.4405 8.84493C14.0817 8.98553 14.6596 9.23953 15.0886 9.5906C15.5172 9.94133 15.8334 10.4235 15.8334 11C15.8334 11.5765 15.5172 12.0587 15.0886 12.4094C14.6596 12.7605 14.0817 13.0145 13.4405 13.1551C13.1708 13.2142 12.9041 13.0435 12.845 12.7738C12.7858 12.5041 12.9565 12.2374 13.2262 12.1783C13.7545 12.0624 14.1766 11.8635 14.4553 11.6355C14.7343 11.4072 14.8334 11.1842 14.8334 11C14.8334 10.8158 14.7343 10.5928 14.4553 10.3645C14.1766 10.1365 13.7545 9.9376 13.2262 9.82173C12.9565 9.7626 12.7858 9.49593 12.845 9.2262Z" fill="#D0E0E3"/>
<path d="M2.55959 8.84493C2.82932 8.7858 3.09593 8.95646 3.15508 9.2262C3.21423 9.49593 3.04352 9.7626 2.77379 9.82173C2.24555 9.9376 1.82339 10.1365 1.54477 10.3645C1.26577 10.5928 1.16669 10.8158 1.16669 11C1.16669 11.1842 1.26577 11.4072 1.54477 11.6355C1.82339 11.8635 2.24555 12.0624 2.77379 12.1783C3.04352 12.2374 3.21423 12.5041 3.15508 12.7738C3.09593 13.0435 2.82932 13.2142 2.55959 13.1551C1.91833 13.0145 1.34049 12.7605 0.91148 12.4094C0.482852 12.0587 0.166687 11.5765 0.166687 11C0.166687 10.4235 0.482852 9.94133 0.91148 9.5906C1.34049 9.23953 1.91833 8.98553 2.55959 8.84493Z" fill="#D0E0E3"/>
</svg>
