<svg width="80" height="47" viewBox="0 0 80 47" fill="none" xmlns="http://www.w3.org/2000/svg">
<path d="M16.2 26V8H14.4V9.8H12.6V15.2H9V9.8H7.2V8H5.4V26H1.8V0.799998H5.4V4.4H9V6.2H12.6V4.4H16.2V0.799998H19.8V26H16.2ZM29.984 4.4V0.799998H33.584V4.4H29.984ZM26.384 26V22.4H29.984V11.6H26.384V8H33.584V22.4H37.184V26H26.384ZM58.1961 26H43.7961V0.799998H58.1961V2.6H59.9961V4.4H61.7961V11.6H59.9961V15.2H61.7961V22.4H59.9961V24.2H58.1961V26ZM47.3961 11.6H56.3961V9.8H58.1961V6.2H56.3961V4.4H47.3961V11.6ZM47.3961 22.4H56.3961V20.6H58.1961V17H56.3961V15.2H47.3961V22.4ZM71.9801 4.4V0.799998H75.5801V4.4H71.9801ZM68.3801 26V22.4H71.9801V11.6H68.3801V8H75.5801V22.4H79.1801V26H68.3801ZM5.85 44V37.5H5.2V38.15H4.55V40.1H3.25V38.15H2.6V37.5H1.95V44H0.65V34.9H1.95V36.2H3.25V36.85H4.55V36.2H5.85V34.9H7.15V44H5.85ZM9.74492 36.2V34.9H11.0449V36.2H9.74492ZM8.44492 44V42.7H9.74492V38.8H8.44492V37.5H11.0449V42.7H12.3449V44H8.44492ZM18.85 44V39.45H18.2V38.8H16.9V39.45H16.25V40.1H14.95V44H13.65V37.5H14.95V38.8H15.6V38.15H16.25V37.5H18.85V38.15H19.5V38.8H20.15V44H18.85ZM22.7449 46.6V45.3H25.9949V44.65H26.6449V42.7H25.9949V43.35H25.3449V44H22.7449V43.35H22.0949V42.7H21.4449V37.5H22.7449V42.05H23.3949V42.7H24.6949V42.05H25.3449V41.4H26.6449V37.5H27.9449V45.3H27.2949V45.95H26.6449V46.6H22.7449ZM40.4359 44H35.2359V34.9H40.4359V35.55H41.0859V36.2H41.7359V38.8H41.0859V40.1H41.7359V42.7H41.0859V43.35H40.4359V44ZM36.5359 38.8H39.7859V38.15H40.4359V36.85H39.7859V36.2H36.5359V38.8ZM36.5359 42.7H39.7859V42.05H40.4359V40.75H39.7859V40.1H36.5359V42.7ZM44.3309 36.2V34.9H45.6309V36.2H44.3309ZM43.0309 44V42.7H44.3309V38.8H43.0309V37.5H45.6309V42.7H46.9309V44H43.0309ZM53.4359 44V39.45H52.7859V38.8H51.4859V39.45H50.8359V40.1H49.5359V44H48.2359V37.5H49.5359V38.8H50.1859V38.15H50.8359V37.5H53.4359V38.15H54.0859V38.8H54.7359V44H53.4359ZM56.0309 42.7V41.4H56.6809V40.75H57.3309V40.1H61.2309V39.45H60.5809V38.8H57.3309V37.5H61.2309V38.15H61.8809V38.8H62.5309V44H57.3309V43.35H56.6809V42.7H56.0309ZM57.9809 42.7H61.2309V41.4H57.9809V42.7ZM63.8258 44V37.5H65.1258V38.8H65.7758V38.15H66.4258V37.5H69.0258V38.15H69.6758V38.8H70.3258V40.1H69.0258V39.45H68.3758V38.8H67.0758V39.45H66.4258V40.1H65.1258V44H63.8258ZM72.9207 46.6V45.3H76.1707V44.65H76.8207V42.7H76.1707V43.35H75.5207V44H72.9207V43.35H72.2707V42.7H71.6207V37.5H72.9207V42.05H73.5707V42.7H74.8707V42.05H75.5207V41.4H76.8207V37.5H78.1207V45.3H77.4707V45.95H76.8207V46.6H72.9207Z" fill="#27C191"/>
</svg>
