<svg width="84" height="46" viewBox="0 0 84 46" fill="none" xmlns="http://www.w3.org/2000/svg">
<path d="M7.704 22.284L4.464 8.532L5.22 8.352V26.028H0V0.468H6.12L9.936 15.048H8.64L12.456 0.468H18.576V26.028H13.356V8.352L14.112 8.532L10.872 22.284H7.704Z" fill="#27C191"/>
<path d="M29.3979 26.028V6.66H34.8699V26.028H29.3979ZM22.3779 26.028V21.744H40.8099V26.028H22.3779ZM22.7379 10.944V6.66H33.6819V10.944H22.7379ZM29.2899 4.5V0H34.8339V4.5H29.2899Z" fill="#27C191"/>
<path d="M43.8559 26.028V0.468H51.9199C54.7999 0.468 57.0079 1.032 58.5439 2.16C60.1039 3.288 60.8839 4.992 60.8839 7.272C60.8839 8.304 60.6679 9.228 60.2359 10.044C59.8039 10.86 59.1199 11.52 58.1839 12.024C57.2719 12.528 56.0599 12.852 54.5479 12.996V12.708C56.2999 12.804 57.7159 13.128 58.7959 13.68C59.8999 14.232 60.7039 14.976 61.2079 15.912C61.7119 16.824 61.9639 17.88 61.9639 19.08C61.9639 21.408 61.1719 23.148 59.5879 24.3C58.0039 25.452 55.6999 26.028 52.6759 26.028H43.8559ZM49.6519 20.988L52.6759 20.952C53.7799 20.928 54.6079 20.688 55.1599 20.232C55.7359 19.776 56.0239 19.14 56.0239 18.324C56.0239 17.436 55.7359 16.752 55.1599 16.272C54.6079 15.768 53.7799 15.516 52.6759 15.516H49.6519V20.988ZM49.6519 10.656H51.8479C52.8799 10.656 53.6479 10.428 54.1519 9.972C54.6799 9.516 54.9439 8.868 54.9439 8.028C54.9439 7.212 54.6799 6.588 54.1519 6.156C53.6479 5.724 52.8799 5.508 51.8479 5.508H49.6519V10.656Z" fill="#27C191"/>
<path d="M72.5698 26.028V6.66H78.0418V26.028H72.5698ZM65.5498 26.028V21.744H83.9818V26.028H65.5498ZM65.9098 10.944V6.66H76.8538V10.944H65.9098ZM72.4618 4.5V0H78.0058V4.5H72.4618Z" fill="#27C191"/>
<path d="M3.01522 42.676L1.84522 37.71L2.11822 37.645V44.028H0.233219V34.798H2.44322L3.82122 40.063H3.35322L4.73122 34.798H6.94122V44.028H5.05622V37.645L5.32922 37.71L4.15922 42.676H3.01522Z" fill="#27C191"/>
<path d="M10.8491 44.028V37.034H12.8251V44.028H10.8491ZM8.31414 44.028V42.481H14.9701V44.028H8.31414ZM8.44414 38.581V37.034H12.3961V38.581H8.44414ZM10.8101 36.254V34.629H12.8121V36.254H10.8101Z" fill="#27C191"/>
<path d="M16.1611 44.028V37.034H17.9681L18.0331 38.984L17.8381 38.919C17.9161 38.451 18.0591 38.0653 18.2671 37.762C18.4751 37.4587 18.7307 37.2377 19.0341 37.099C19.3461 36.9517 19.6971 36.878 20.0871 36.878C20.5811 36.878 20.9797 36.9907 21.2831 37.216C21.5951 37.4327 21.8247 37.736 21.9721 38.126C22.1194 38.516 22.1931 38.971 22.1931 39.491V44.028H20.2041V39.92C20.2041 39.4347 20.1261 39.0837 19.9701 38.867C19.8227 38.6503 19.5931 38.542 19.2811 38.542C19.0817 38.542 18.8954 38.5983 18.7221 38.711C18.5487 38.8237 18.4101 38.9883 18.3061 39.205C18.2021 39.4217 18.1501 39.6947 18.1501 40.024V44.028H16.1611Z" fill="#27C191"/>
<path d="M24.476 45.978V44.431H25.464C25.6807 44.431 25.854 44.4007 25.984 44.34C26.114 44.2793 26.2093 44.1537 26.27 43.963L26.439 43.482H25.828L23.423 37.034H25.464L27.05 41.571L28.48 37.034H30.534L27.895 44.561C27.713 45.0723 27.4357 45.4363 27.063 45.653C26.699 45.8697 26.2353 45.978 25.672 45.978H24.476Z" fill="#27C191"/>
<path d="M37.656 44.028V34.798H40.568C41.608 34.798 42.4053 35.0017 42.96 35.409C43.5233 35.8163 43.805 36.4317 43.805 37.255C43.805 37.6277 43.727 37.9613 43.571 38.256C43.415 38.5507 43.168 38.789 42.83 38.971C42.5007 39.153 42.063 39.27 41.517 39.322V39.218C42.1497 39.2527 42.661 39.3697 43.051 39.569C43.4497 39.7683 43.74 40.037 43.922 40.375C44.104 40.7043 44.195 41.0857 44.195 41.519C44.195 42.3597 43.909 42.988 43.337 43.404C42.765 43.82 41.933 44.028 40.841 44.028H37.656ZM39.749 42.208L40.841 42.195C41.2397 42.1863 41.5387 42.0997 41.738 41.935C41.946 41.7703 42.05 41.5407 42.05 41.246C42.05 40.9253 41.946 40.6783 41.738 40.505C41.5387 40.323 41.2397 40.232 40.841 40.232H39.749V42.208ZM39.749 38.477H40.542C40.9147 38.477 41.192 38.3947 41.374 38.23C41.5647 38.0653 41.66 37.8313 41.66 37.528C41.66 37.2333 41.5647 37.008 41.374 36.852C41.192 36.696 40.9147 36.618 40.542 36.618H39.749V38.477Z" fill="#27C191"/>
<path d="M48.0249 44.028V37.034H50.0009V44.028H48.0249ZM45.4899 44.028V42.481H52.1459V44.028H45.4899ZM45.6199 38.581V37.034H49.5719V38.581H45.6199ZM47.9859 36.254V34.629H49.9879V36.254H47.9859Z" fill="#27C191"/>
<path d="M53.3368 44.028V37.034H55.1438L55.2088 38.984L55.0138 38.919C55.0918 38.451 55.2348 38.0653 55.4428 37.762C55.6508 37.4587 55.9065 37.2377 56.2098 37.099C56.5218 36.9517 56.8728 36.878 57.2628 36.878C57.7568 36.878 58.1555 36.9907 58.4588 37.216C58.7708 37.4327 59.0005 37.736 59.1478 38.126C59.2952 38.516 59.3688 38.971 59.3688 39.491V44.028H57.3798V39.92C57.3798 39.4347 57.3018 39.0837 57.1458 38.867C56.9985 38.6503 56.7688 38.542 56.4568 38.542C56.2575 38.542 56.0712 38.5983 55.8978 38.711C55.7245 38.8237 55.5858 38.9883 55.4818 39.205C55.3778 39.4217 55.3258 39.6947 55.3258 40.024V44.028H53.3368Z" fill="#27C191"/>
<path d="M63.1338 44.184C62.7091 44.184 62.3191 44.106 61.9638 43.95C61.6084 43.794 61.3268 43.5687 61.1188 43.274C60.9108 42.9707 60.8068 42.6067 60.8068 42.182C60.8068 41.5927 60.9974 41.1377 61.3788 40.817C61.7688 40.4877 62.2758 40.2493 62.8998 40.102L64.9278 39.66C64.9278 39.27 64.8541 38.9667 64.7068 38.75C64.5594 38.5247 64.3038 38.412 63.9398 38.412C63.6278 38.412 63.3894 38.4943 63.2248 38.659C63.0601 38.8237 62.9561 39.0273 62.9128 39.27L60.8718 39.166C61.0018 38.4727 61.3354 37.918 61.8728 37.502C62.4101 37.086 63.0818 36.878 63.8878 36.878C64.9538 36.878 65.7251 37.1337 66.2018 37.645C66.6784 38.1477 66.9168 38.8627 66.9168 39.79V42.104C66.9168 42.2947 66.9471 42.4247 67.0078 42.494C67.0684 42.5547 67.1551 42.585 67.2678 42.585H67.5018V44.028C67.4498 44.0367 67.3631 44.0497 67.2418 44.067C67.1204 44.0843 66.9904 44.093 66.8518 44.093C66.4878 44.093 66.1758 44.028 65.9158 43.898C65.6644 43.768 65.4694 43.5817 65.3308 43.339C65.1921 43.0963 65.1184 42.8103 65.1098 42.481H65.2918C65.2571 42.8017 65.1488 43.092 64.9668 43.352C64.7848 43.612 64.5378 43.8157 64.2258 43.963C63.9224 44.1103 63.5584 44.184 63.1338 44.184ZM63.5758 42.741C63.8618 42.741 64.1044 42.689 64.3038 42.585C64.5031 42.481 64.6548 42.325 64.7588 42.117C64.8714 41.909 64.9278 41.6577 64.9278 41.363V41.012L63.5758 41.324C63.3071 41.3847 63.1164 41.4757 63.0038 41.597C62.8998 41.7097 62.8478 41.8787 62.8478 42.104C62.8478 42.3033 62.9084 42.4593 63.0298 42.572C63.1511 42.6847 63.3331 42.741 63.5758 42.741Z" fill="#27C191"/>
<path d="M70.5257 44.028V37.034H71.9557L72.0987 38.88L71.9817 38.893C72.051 38.2777 72.2243 37.814 72.5017 37.502C72.779 37.19 73.1994 37.034 73.7627 37.034H75.3747V38.62H73.9317C73.6024 38.62 73.3337 38.6763 73.1257 38.789C72.9177 38.893 72.7617 39.0533 72.6577 39.27C72.5623 39.478 72.5147 39.7467 72.5147 40.076V44.028H70.5257ZM68.9007 44.028V42.481H74.6207V44.028H68.9007ZM68.9007 38.581V37.034H71.7347V38.581H68.9007Z" fill="#27C191"/>
<path d="M77.2416 45.978V44.431H78.2296C78.4463 44.431 78.6196 44.4007 78.7496 44.34C78.8796 44.2793 78.9749 44.1537 79.0356 43.963L79.2046 43.482H78.5936L76.1886 37.034H78.2296L79.8156 41.571L81.2456 37.034H83.2996L80.6606 44.561C80.4786 45.0723 80.2013 45.4363 79.8286 45.653C79.4646 45.8697 79.0009 45.978 78.4376 45.978H77.2416Z" fill="#27C191"/>
</svg>
