<svg xmlns="http://www.w3.org/2000/svg" viewBox="151.885 161.626 13.999 13.978">
  <path fill-rule="evenodd" clip-rule="evenodd" d="M 152.167 161.911 C 152.557 161.52 153.19 161.52 153.581 161.911 L 158.874 167.204 L 164.167 161.911 C 164.557 161.52 165.19 161.52 165.581 161.911 C 165.971 162.301 165.971 162.935 165.581 163.325 L 160.288 168.618 L 165.581 173.911 C 165.971 174.301 165.971 174.935 165.581 175.325 C 165.19 175.716 164.557 175.716 164.167 175.325 L 158.874 170.032 L 153.581 175.325 C 153.19 175.716 152.557 175.716 152.167 175.325 C 151.776 174.935 151.776 174.301 152.167 173.911 L 157.46 168.618 L 152.167 163.325 C 151.776 162.935 151.776 162.301 152.167 161.911 Z" fill="#535363"></path>
</svg>
